<?xml version="1.0" encoding="iso-8859-1"?>
<!-- Generator: Adobe Illustrator 19.0.0, SVG Export Plug-In . SVG Version: 6.00 Build 0)  -->
<svg xmlns="http://www.w3.org/2000/svg" xmlns:xlink="http://www.w3.org/1999/xlink" version="1.1" id="Capa_1" x="0px" y="0px" viewBox="0 0 496 496" style="enable-background:new 0 0 496 496;" xml:space="preserve" width="512px" height="512px">
<g>
	<g>
		<g>
			<path d="M488,144c4.418,0,8-3.582,8-8V8c0-4.418-3.582-8-8-8H8C3.582,0,0,3.582,0,8v128c0,4.418,3.582,8,8,8h8v288H8     c-4.418,0-8,3.582-8,8v48c0,4.418,3.582,8,8,8h480c4.418,0,8-3.582,8-8v-48c0-4.418-3.582-8-8-8h-8V144H488z M448,16h32v80h-32     V16z M400,16h32v80h-32V16z M352,16h32v80h-32V16z M304,16h32v80h-32V16z M256,16h32v80h-32V16z M208,16h32v80h-32V16z M160,16     h32v80h-32V16z M112,16h32v80h-32V16z M64,16h32v80H64V16z M16,16h32v80H16V16z M480,480H16v-32h464V480z M344,272H152     c-4.418,0-8,3.582-8,8v152H32V144h432v288H352V280C352,275.582,348.418,272,344,272z M336,288v144h-80V288H336z M240,288v144h-80     V288H240z M472,128H16v-16h464v16H472z" fill="#FFFFFF"/>
			<path d="M384,248v-8h24c4.418,0,8-3.582,8-8v-48c0-4.418-3.582-8-8-8h-24v-8c0-4.418-3.582-8-8-8h-32c-4.418,0-8,3.582-8,8v16     H160v-16c0-4.418-3.582-8-8-8h-32c-4.418,0-8,3.582-8,8v8H88c-4.418,0-8,3.582-8,8v48c0,4.418,3.582,8,8,8h24v8     c0,4.418,3.582,8,8,8h32c4.418,0,8-3.582,8-8v-16h176v16c0,4.418,3.582,8,8,8h32C380.418,256,384,252.418,384,248z M384,192h16     v32h-16V192z M112,224H96v-32h16V224z M144,240h-16v-64h16V240z M336,216H160v-16h176V216z M368,240h-16v-64h16V240z" fill="#FFFFFF"/>
			<rect x="208" y="352" width="16" height="32" fill="#FFFFFF"/>
			<rect x="272" y="352" width="16" height="32" fill="#FFFFFF"/>
		</g>
	</g>
</g>
<g>
</g>
<g>
</g>
<g>
</g>
<g>
</g>
<g>
</g>
<g>
</g>
<g>
</g>
<g>
</g>
<g>
</g>
<g>
</g>
<g>
</g>
<g>
</g>
<g>
</g>
<g>
</g>
<g>
</g>
</svg>
