<svg id="Layer_1" data-name="Layer 1" xmlns="http://www.w3.org/2000/svg" viewBox="0 0 79.55 103.42"><defs><style>.cls-1{fill:#fff;stroke-width:3px;}.cls-1,.cls-2{stroke:#000;stroke-miterlimit:10;}.cls-2{fill:none;stroke-width:4px;}</style></defs><title>svgggggg</title><g id="Layer_1-2" data-name="Layer 1"><path class="cls-1" d="M12.59,1.5c0,.63,0,1.26,0,1.9V16.13c0,23.4,0,47.56,0,71.38a4.07,4.07,0,0,0,.88,3,3.89,3.89,0,0,0,2.87.88h.08c6.54,0,13,0,19.1,0H53.31a17.68,17.68,0,0,0,3.8-.38A12.8,12.8,0,0,0,67.27,78.57,12.43,12.43,0,0,0,56.05,66.38c-3.16-.21-6.28-.25-10-.25H38.77c-.42,0-.8,0-1.22,0V55.51H45.3c3,0,5.32,0,7.47,0A23.37,23.37,0,0,0,57.4,55a12.69,12.69,0,0,0,9.87-12.39c-.21-6.33-5.06-11.64-11.09-12.1-3.58-.26-7.21-.3-10.33-.3H38.64c-.38,0-.76,0-1.18,0V19.67c.34,0,.63,0,.93,0H55.25a22.46,22.46,0,0,1,17.33,8.43,22.8,22.8,0,0,1,5,18.72,24.34,24.34,0,0,1-6.92,13l-.63.63.42.8s0,.08.09.13a1.83,1.83,0,0,0,.33.54c.17.17.3.34.47.51s.29.3.38.42C78.4,70.6,79.79,79,75.91,88A23.31,23.31,0,0,1,67.56,98.3a23.58,23.58,0,0,1-12.9,3.58c-4.76,0-9.86,0-16.06,0H15.2c-3.41,0-6.91,0-10.29,0-1.13,0-2.27,0-3.41,0V1.5H12.59"/></g><path class="cls-2" d="M54.13,3.75V12.1H27.28V39.16H53.84v8.35H27.28V75.17H53.54v8.34H18.72V3.75H54.13"/></svg>